<svg width="547" height="596" viewBox="0 0 547 596" fill="none" xmlns="http://www.w3.org/2000/svg">
<path d="M486.033 457.06C487.2 459.255 486.367 461.979 484.173 463.146C481.978 464.313 479.254 463.48 478.087 461.285L486.033 457.06ZM434.989 361.059L486.033 457.06L478.087 461.285L427.042 365.284L434.989 361.059Z" fill="#6D6D6D"/>
<path d="M284.885 564.013C286.052 566.208 285.219 568.932 283.024 570.099C280.83 571.266 278.105 570.433 276.939 568.239L284.885 564.013ZM233.84 468.012L284.885 564.013L276.939 568.239L225.894 472.238L233.84 468.012Z" fill="#6D6D6D"/>
<rect width="362.426" height="238.166" transform="matrix(-0.882948 0.469472 0.469472 0.882948 363.758 82.2891)" fill="#191619"/>
<ellipse cx="181.213" cy="98.3728" rx="181.213" ry="98.3728" transform="matrix(-0.882948 0.469472 0.469472 0.882948 320.008 0)" fill="#434343"/>
<ellipse cx="46.5976" cy="25.8876" rx="46.5976" ry="25.8876" transform="matrix(-0.882948 0.469472 0.469472 0.882948 230.32 118.062)" fill="#191619"/>
<ellipse cx="181.213" cy="98.3728" rx="181.213" ry="98.3728" transform="matrix(-0.882948 0.469472 0.469472 0.882948 426.961 201.148)" fill="#191619"/>
</svg>
